<svg xmlns="http://www.w3.org/2000/svg" viewBox="0 0 30 30" x="0px" y="0px">
<path fill-rule="evenodd" clip-rule="evenodd" d="M11.0625 3.75C8.16837 3.75 5.875 5.99475 5.875 8.7C5.875 8.78713 5.87735 8.87366 5.88199 8.95955C5.8931 9.16518 5.81916 9.36634 5.67753 9.51583C5.53589 9.66532 5.33902 9.75 5.13308 9.75H5.125C3.78417 9.75 2.75 10.7859 2.75 12C2.75 13.2141 3.78417 14.25 5.125 14.25H7C7.41421 14.25 7.75 14.5858 7.75 15C7.75 15.4142 7.41421 15.75 7 15.75H5.125C3.01405 15.75 1.25 14.0996 1.25 12C1.25 10.1509 2.61811 8.65032 4.38644 8.31848C4.59158 4.90878 7.529 2.25 11.0625 2.25C13.4447 2.25 15.5471 3.45338 16.7333 5.27949C16.9238 5.25999 17.117 5.25 17.3125 5.25C20.2864 5.25 22.75 7.57194 22.75 10.5C22.75 12.7645 21.2708 14.6715 19.2299 15.4141C18.7394 15.6303 18.1954 15.75 17.625 15.75H11.0625C10.6483 15.75 10.3125 15.4142 10.3125 15C10.3125 14.5858 10.6483 14.25 11.0625 14.25H17.625C17.9911 14.25 18.3352 14.172 18.642 14.0339C18.66 14.0258 18.6784 14.0184 18.697 14.0117C20.2049 13.4721 21.25 12.0902 21.25 10.5C21.25 8.45749 19.5163 6.75 17.3125 6.75C17.0309 6.75 16.7571 6.77805 16.4935 6.8311C16.1694 6.89637 15.8407 6.74161 15.6845 6.45014C14.83 4.85581 13.0884 3.75 11.0625 3.75Z" fill="black"/>
<path fill-rule="evenodd" clip-rule="evenodd" d="M5.83557 16.8292C6.20606 17.0145 6.35623 17.465 6.17098 17.8355L4.67098 20.8355C4.48574 21.2059 4.03524 21.3561 3.66475 21.1709C3.29427 20.9856 3.1441 20.5351 3.32934 20.1646L4.82934 17.1646C5.01459 16.7941 5.46509 16.644 5.83557 16.8292Z" fill="black"/>
<path fill-rule="evenodd" clip-rule="evenodd" d="M9.83557 16.8292C10.2061 17.0145 10.3562 17.465 10.171 17.8355L8.67098 20.8355C8.48574 21.2059 8.03524 21.3561 7.66475 21.1709C7.29427 20.9856 7.1441 20.5351 7.32934 20.1646L8.82934 17.1646C9.01459 16.7941 9.46509 16.644 9.83557 16.8292Z" fill="black"/>
<path fill-rule="evenodd" clip-rule="evenodd" d="M13.8356 16.8292C14.2061 17.0145 14.3562 17.465 14.171 17.8355L12.671 20.8355C12.4857 21.2059 12.0352 21.3561 11.6648 21.1709C11.2943 20.9856 11.1441 20.5351 11.3293 20.1646L12.8293 17.1646C13.0146 16.7941 13.4651 16.644 13.8356 16.8292Z" fill="black"/>
<path fill-rule="evenodd" clip-rule="evenodd" d="M17.8356 16.8292C18.2061 17.0145 18.3562 17.465 18.171 17.8355L16.671 20.8355C16.4857 21.2059 16.0352 21.3561 15.6648 21.1709C15.2943 20.9856 15.1441 20.5351 15.3293 20.1646L16.8293 17.1646C17.0146 16.7941 17.4651 16.644 17.8356 16.8292Z" fill="black"/>
</svg>